<?xml version="1.0" encoding="utf-8"?>
<!-- Generator: Adobe Illustrator 22.1.0, SVG Export Plug-In . SVG Version: 6.00 Build 0)  -->
<svg version="1.1" id="Calque_1" xmlns="http://www.w3.org/2000/svg" xmlns:xlink="http://www.w3.org/1999/xlink" x="0px" y="0px"
	 viewBox="0 0 100 100" style="enable-background:new 0 0 100 100;" xml:space="preserve">
<style type="text/css">
	.st0{fill:#FFFFFF;}
	.st1{fill:#666666;}
</style>
<circle class="st0" cx="8.7" cy="8.7" r="8.7"/>
<path class="st1" d="M9.9,0C4.5,0,0,4.5,0,9.9s4.5,9.9,9.9,9.9s9.9-4.5,9.9-9.9C19.8,4.3,15.2,0,9.9,0z"/>
<path class="st1" d="M50,0c-5.3,0-9.9,4.5-9.9,9.9s4.5,9.9,9.9,9.9s9.9-4.5,9.9-9.9C59.9,4.3,55.3,0,50,0z"/>
<path class="st1" d="M89.7,0c-5.3,0-9.9,4.5-9.9,9.9s4.5,9.9,9.9,9.9s9.9-4.5,9.9-9.9C99.6,4.3,95.1,0,89.7,0z"/>
<circle class="st0" cx="8.9" cy="88.9" r="8.7"/>
<path class="st1" d="M10.1,80.2c-5.3,0-9.9,4.5-9.9,9.9s4.5,9.9,9.9,9.9s9.9-4.5,9.9-9.9C20,84.6,15.4,80.2,10.1,80.2z"/>
<path class="st1" d="M50.2,80.2c-5.3,0-9.9,4.5-9.9,9.9s4.5,9.9,9.9,9.9s9.9-4.5,9.9-9.9C60.1,84.6,55.5,80.2,50.2,80.2z"/>
<path class="st1" d="M89.9,80.2c-5.3,0-9.9,4.5-9.9,9.9s4.5,9.9,9.9,9.9c5.3,0,9.9-4.5,9.9-9.9C99.8,84.6,95.3,80.2,89.9,80.2z"/>
<circle class="st0" cx="9.1" cy="48.8" r="8.7"/>
<path class="st1" d="M10.3,40.1c-5.3,0-9.9,4.5-9.9,9.9s4.5,9.9,9.9,9.9s9.9-4.5,9.9-9.9C20.2,44.4,15.6,40.1,10.3,40.1z"/>
<path class="st1" d="M90.1,40.1c-5.3,0-9.9,4.5-9.9,9.9s4.5,9.9,9.9,9.9s9.9-4.5,9.9-9.9C100,44.4,95.5,40.1,90.1,40.1z"/>
</svg>
