<?xml version="1.0" encoding="utf-8"?>
<!-- Generator: Adobe Illustrator 22.1.0, SVG Export Plug-In . SVG Version: 6.00 Build 0)  -->
<svg version="1.1" id="Calque_1" xmlns="http://www.w3.org/2000/svg" xmlns:xlink="http://www.w3.org/1999/xlink" x="0px" y="0px"
	 viewBox="0 0 100 100" style="enable-background:new 0 0 100 100;" xml:space="preserve">
<style type="text/css">
	.st0{fill:#FFFFFF;}
	.st1{fill:#666666;}
</style>
<circle class="st0" cx="6.9" cy="6.8" r="6.8"/>
<path class="st1" d="M7.7,0C3.5,0,0,3.5,0,7.7s3.5,7.7,7.7,7.7s7.7-3.5,7.7-7.7C15.4,3.4,11.8,0,7.7,0z"/>
<path class="st1" d="M50,0c-4.1,0-7.7,3.5-7.7,7.7s3.5,7.7,7.7,7.7s7.7-3.5,7.7-7.7C57.7,3.3,54.1,0,50,0z"/>
<path class="st1" d="M92.3,0c-4.1,0-7.7,3.5-7.7,7.7s3.5,7.7,7.7,7.7s7.7-3.5,7.7-7.7C100,3.3,96.5,0,92.3,0z"/>
<circle class="st0" cx="6.8" cy="91.4" r="6.8"/>
<path class="st1" d="M7.7,84.6c-4.2,0-7.7,3.5-7.7,7.7s3.5,7.7,7.7,7.7s7.7-3.5,7.7-7.7C15.4,87.9,11.8,84.6,7.7,84.6z"/>
<path class="st1" d="M50,84.6c-4.1,0-7.7,3.5-7.7,7.7s3.5,7.7,7.7,7.7s7.7-3.5,7.7-7.7C57.7,87.9,54.1,84.6,50,84.6z"/>
<path class="st1" d="M92.3,84.6c-4.1,0-7.7,3.5-7.7,7.7s3.5,7.7,7.7,7.7s7.7-3.5,7.7-7.7C100,87.9,96.5,84.6,92.3,84.6z"/>
<circle class="st0" cx="6.9" cy="49.1" r="6.8"/>
<path class="st1" d="M7.7,42.3C3.5,42.3,0,45.8,0,50s3.5,7.7,7.7,7.7s7.7-3.5,7.7-7.7C15.4,45.6,11.8,42.3,7.7,42.3z"/>
<path class="st1" d="M92.3,42.3c-4.1,0-7.7,3.5-7.7,7.7s3.5,7.7,7.7,7.7s7.7-3.5,7.7-7.7C100,45.6,96.5,42.3,92.3,42.3z"/>
</svg>
